<svg xmlns="http://www.w3.org/2000/svg" xmlns:xlink="http://www.w3.org/1999/xlink" width="156" zoomAndPan="magnify" viewBox="0 0 116.88 37.5" height="50" preserveAspectRatio="xMidYMid meet" version="1.0"><defs><g/><clipPath id="beb7febc97"><path d="M 12.488281 1.183594 L 44.3125 1.183594 L 44.3125 17 L 12.488281 17 Z M 12.488281 1.183594 " clip-rule="nonzero"/></clipPath></defs><g clip-path="url(#beb7febc97)"><path fill="#ffffff" d="M 23.53125 9.160156 C 23.367188 9.0625 23.203125 8.96875 23.042969 8.878906 C 22.707031 8.726562 22.398438 8.5625 22.074219 8.46875 C 21.449219 8.242188 20.867188 8.136719 20.367188 8.027344 C 19.863281 7.925781 19.433594 7.839844 19.074219 7.765625 C 18.726562 7.683594 18.449219 7.613281 18.234375 7.546875 C 18.371094 7.648438 18.519531 7.769531 18.695312 7.882812 C 18.804688 7.9375 18.917969 7.992188 19.035156 8.054688 C 19.160156 8.117188 19.289062 8.152344 19.421875 8.210938 C 19.558594 8.257812 19.71875 8.304688 19.875 8.355469 C 19.957031 8.382812 20.039062 8.40625 20.121094 8.433594 C 20.164062 8.449219 20.207031 8.460938 20.25 8.476562 L 20.285156 8.484375 L 20.292969 8.488281 C 20.292969 8.488281 20.300781 8.492188 20.300781 8.492188 L 20.304688 8.492188 L 20.367188 8.511719 C 20.546875 8.5625 20.726562 8.613281 20.914062 8.664062 C 21.101562 8.714844 21.296875 8.78125 21.488281 8.8125 C 21.878906 8.890625 22.28125 8.992188 22.722656 9.046875 C 22.984375 9.089844 23.257812 9.125 23.53125 9.160156 Z M 25.128906 11.675781 C 24.332031 11.179688 23.488281 10.953125 22.703125 10.859375 C 21.835938 10.753906 21.035156 10.753906 20.339844 10.773438 C 19.644531 10.808594 19.035156 10.875 18.507812 10.945312 C 17.609375 11.066406 16.949219 11.171875 16.480469 11.234375 C 16.476562 11.234375 16.476562 11.238281 16.46875 11.238281 C 16.382812 11.265625 16.289062 11.292969 16.1875 11.339844 C 16.175781 11.34375 16.160156 11.351562 16.144531 11.355469 C 16.585938 11.390625 17.09375 11.371094 17.644531 11.328125 C 18.066406 11.292969 18.542969 11.257812 19.019531 11.257812 C 19.492188 11.253906 19.984375 11.25 20.484375 11.25 C 20.964844 11.25 21.429688 11.253906 21.882812 11.257812 C 22.109375 11.261719 22.328125 11.265625 22.542969 11.269531 C 22.765625 11.28125 22.980469 11.289062 23.195312 11.300781 C 23.910156 11.351562 24.578125 11.484375 25.128906 11.675781 Z M 25.765625 13.101562 C 25.957031 13.152344 26.15625 13.222656 26.347656 13.316406 C 23.910156 10.960938 19.386719 12.289062 16.234375 13.003906 C 16.242188 13.070312 16.222656 13.144531 16.160156 13.207031 C 15.871094 13.515625 15.542969 13.765625 15.195312 13.980469 C 17.449219 13.859375 19.675781 13.496094 21.933594 13.332031 C 23.289062 13.234375 24.769531 13.183594 26.128906 13.515625 C 25.984375 13.453125 25.835938 13.402344 25.691406 13.363281 C 25.261719 13.25 24.828125 13.203125 24.410156 13.183594 C 23.996094 13.164062 23.597656 13.167969 23.21875 13.179688 C 22.835938 13.1875 22.472656 13.199219 22.132812 13.207031 C 20.761719 13.238281 19.691406 13.257812 18.875 13.257812 C 18.058594 13.257812 17.492188 13.257812 17.132812 13.246094 C 16.773438 13.234375 16.621094 13.222656 16.621094 13.199219 C 16.621094 13.183594 16.773438 13.164062 17.132812 13.140625 C 17.492188 13.117188 18.054688 13.09375 18.871094 13.066406 C 19.6875 13.035156 20.753906 13 22.125 12.953125 C 22.46875 12.941406 22.828125 12.929688 23.210938 12.917969 C 23.589844 12.90625 23.996094 12.898438 24.425781 12.914062 C 24.851562 12.933594 25.300781 12.980469 25.765625 13.101562 Z M 26.371094 11.945312 C 26.550781 12.109375 26.726562 12.285156 26.890625 12.476562 C 26.707031 12.054688 26.46875 11.667969 26.203125 11.332031 C 26.03125 11.121094 25.855469 10.925781 25.671875 10.746094 C 25.0625 10.601562 24.449219 10.550781 23.828125 10.542969 C 23.832031 10.542969 23.832031 10.542969 23.835938 10.542969 C 23.957031 10.578125 24.078125 10.621094 24.207031 10.664062 C 24.707031 10.8125 25.195312 11.078125 25.679688 11.394531 C 25.910156 11.566406 26.140625 11.75 26.371094 11.945312 Z M 27.324219 14.710938 C 27.289062 14.636719 27.253906 14.566406 27.21875 14.496094 C 25.488281 13.609375 23.300781 13.738281 21.425781 13.921875 C 18.953125 14.164062 16.5 14.542969 14.011719 14.5625 C 13.828125 14.816406 13.664062 15.082031 13.511719 15.351562 C 14.140625 15.402344 14.800781 15.363281 15.425781 15.375 C 17 15.410156 18.570312 15.441406 20.144531 15.46875 C 22.386719 15.511719 24.636719 15.570312 26.878906 15.59375 C 26.890625 15.546875 26.90625 15.507812 26.917969 15.464844 C 25.117188 15.230469 23.597656 15.203125 22.355469 15.199219 C 21.082031 15.203125 20.089844 15.207031 19.328125 15.210938 C 18.570312 15.214844 18.046875 15.203125 17.714844 15.1875 C 17.378906 15.175781 17.234375 15.15625 17.234375 15.136719 C 17.234375 15.121094 17.378906 15.101562 17.714844 15.082031 C 18.046875 15.0625 18.570312 15.042969 19.324219 15.015625 C 20.082031 14.992188 21.078125 14.957031 22.355469 14.945312 C 23.617188 14.9375 25.164062 14.957031 27.019531 15.199219 C 27.023438 15.1875 27.035156 15.167969 27.042969 15.152344 C 25.636719 14.921875 24.441406 14.875 23.449219 14.84375 C 22.390625 14.816406 21.554688 14.820312 20.921875 14.804688 C 19.652344 14.777344 19.171875 14.742188 19.171875 14.707031 C 19.171875 14.667969 19.652344 14.632812 20.921875 14.609375 C 21.558594 14.597656 22.386719 14.578125 23.457031 14.589844 C 24.351562 14.605469 25.425781 14.644531 26.671875 14.820312 C 26.371094 14.707031 26.0625 14.652344 25.769531 14.613281 C 25.304688 14.550781 24.859375 14.523438 24.472656 14.480469 C 23.691406 14.410156 23.085938 14.324219 22.621094 14.316406 C 21.691406 14.261719 21.335938 14.21875 21.335938 14.179688 C 21.335938 14.144531 21.691406 14.121094 22.628906 14.125 C 23.097656 14.109375 23.710938 14.171875 24.496094 14.230469 C 24.890625 14.261719 25.316406 14.285156 25.804688 14.347656 C 26.050781 14.378906 26.304688 14.421875 26.570312 14.5 C 26.796875 14.558594 27.027344 14.660156 27.25 14.800781 C 27.273438 14.769531 27.296875 14.738281 27.324219 14.710938 Z M 27.6875 13.101562 C 27.722656 12.542969 27.710938 12.003906 27.660156 11.5 C 27.375 11.140625 26.949219 10.808594 26.441406 10.542969 C 26.304688 10.472656 26.164062 10.40625 26.019531 10.339844 C 26.226562 10.542969 26.425781 10.757812 26.621094 10.996094 C 26.96875 11.429688 27.28125 11.933594 27.5 12.515625 C 27.574219 12.707031 27.636719 12.902344 27.6875 13.101562 Z M 28.777344 16.085938 C 28.636719 15.707031 28.496094 15.316406 28.214844 15.070312 C 27.777344 14.691406 27.507812 15.351562 27.378906 15.917969 C 27.808594 15.734375 28.304688 15.898438 28.777344 16.085938 Z M 35.429688 14.046875 C 35.878906 14.046875 36.332031 14.054688 36.78125 14.066406 C 36.316406 14 35.847656 13.945312 35.378906 13.925781 C 34.167969 13.863281 32.886719 13.8125 31.691406 14.046875 C 31.144531 14.15625 30.644531 14.339844 30.160156 14.566406 C 31.90625 14.28125 33.644531 14.035156 35.429688 14.046875 Z M 39.300781 9.941406 C 39.207031 9.867188 39.117188 9.789062 39.027344 9.714844 C 38.59375 9.351562 38.164062 9.003906 37.675781 8.722656 C 37.164062 8.429688 36.742188 8.535156 36.179688 8.5625 C 35.871094 8.578125 35.59375 8.605469 35.371094 8.609375 C 35.132812 8.648438 34.871094 8.6875 34.574219 8.734375 C 34.136719 8.808594 33.628906 8.894531 33.058594 9.027344 C 32.488281 9.167969 31.847656 9.339844 31.179688 9.636719 C 30.515625 9.933594 29.8125 10.355469 29.253906 11.03125 C 29.054688 11.269531 28.882812 11.542969 28.738281 11.839844 C 28.65625 12.3125 28.570312 12.804688 28.476562 13.316406 C 28.796875 12.875 29.144531 12.464844 29.589844 12.136719 C 30.429688 11.523438 31.351562 11.039062 32.34375 10.722656 C 34.0625 10.175781 35.917969 10.03125 37.699219 9.988281 C 37.980469 9.96875 38.300781 9.960938 38.644531 9.953125 C 38.855469 9.953125 39.074219 9.949219 39.300781 9.941406 Z M 41.613281 14.421875 C 41.199219 14.179688 40.789062 13.925781 40.519531 13.515625 C 40.488281 13.476562 40.476562 13.433594 40.472656 13.394531 C 40.46875 13.382812 40.460938 13.371094 40.460938 13.359375 C 40.316406 12.828125 40.132812 12.316406 39.9375 11.804688 C 37.773438 11.382812 35.5 11.328125 33.324219 11.714844 C 31.5625 12.027344 29.828125 12.640625 28.742188 14.109375 C 28.988281 13.90625 29.226562 13.695312 29.46875 13.503906 C 29.902344 13.199219 30.316406 12.96875 30.730469 12.75 C 31.546875 12.320312 32.351562 12.019531 33.101562 11.894531 C 34.574219 11.625 35.746094 11.507812 36.644531 11.535156 C 37.539062 11.5625 38.15625 11.679688 38.53125 11.792969 C 38.910156 11.914062 39.066406 11.976562 39.0625 11.996094 C 39.054688 12.011719 38.886719 11.984375 38.507812 11.898438 C 38.128906 11.816406 37.523438 11.730469 36.640625 11.730469 C 35.761719 11.730469 34.609375 11.859375 33.148438 12.140625 C 32.421875 12.269531 31.65625 12.5625 30.855469 12.988281 C 30.453125 13.203125 30.027344 13.441406 29.636719 13.71875 C 29.433594 13.878906 29.234375 14.054688 29.019531 14.238281 C 29.773438 13.785156 30.492188 13.386719 31.195312 13.089844 C 31.636719 12.898438 32.074219 12.757812 32.496094 12.644531 C 32.917969 12.546875 33.324219 12.464844 33.710938 12.429688 C 34.484375 12.339844 35.175781 12.332031 35.785156 12.335938 C 36.390625 12.339844 36.921875 12.339844 37.382812 12.359375 C 38.304688 12.394531 38.9375 12.503906 39.332031 12.601562 C 39.71875 12.710938 39.882812 12.773438 39.882812 12.792969 C 39.867188 12.855469 39.203125 12.578125 37.375 12.554688 C 36.917969 12.546875 36.394531 12.554688 35.785156 12.5625 C 35.179688 12.570312 34.496094 12.582031 33.742188 12.679688 C 33.363281 12.71875 32.96875 12.800781 32.558594 12.898438 C 32.152344 13.011719 31.730469 13.148438 31.304688 13.335938 C 31.296875 13.339844 31.292969 13.339844 31.285156 13.34375 C 32.160156 13.050781 32.976562 12.871094 33.71875 12.804688 C 35.15625 12.660156 36.285156 12.804688 37.121094 12.953125 C 37.332031 12.996094 37.527344 13.035156 37.703125 13.066406 C 37.878906 13.117188 38.039062 13.15625 38.183594 13.195312 C 38.328125 13.234375 38.457031 13.269531 38.578125 13.304688 C 38.691406 13.34375 38.792969 13.375 38.882812 13.40625 C 39.234375 13.53125 39.386719 13.59375 39.378906 13.613281 C 39.371094 13.628906 39.210938 13.601562 38.851562 13.507812 C 38.761719 13.488281 38.660156 13.460938 38.542969 13.429688 C 38.425781 13.402344 38.292969 13.375 38.148438 13.34375 C 38 13.3125 37.84375 13.277344 37.667969 13.238281 C 37.488281 13.210938 37.296875 13.179688 37.089844 13.144531 C 36.261719 13.023438 35.148438 12.902344 33.746094 13.058594 C 33.097656 13.125 32.390625 13.273438 31.636719 13.511719 C 32.671875 13.363281 33.710938 13.3125 34.753906 13.351562 C 36.765625 13.425781 38.679688 13.949219 40.632812 14.304688 C 40.960938 14.339844 41.285156 14.375 41.613281 14.421875 Z M 36.210938 15.503906 C 38.402344 15.503906 40.625 15.503906 42.789062 15.503906 C 42.652344 15.371094 42.511719 15.238281 42.375 15.109375 C 42.371094 15.105469 42.367188 15.109375 42.363281 15.109375 C 41.824219 15.054688 41.285156 14.964844 40.75 14.863281 C 38.984375 14.667969 37.207031 14.59375 35.429688 14.59375 C 33.261719 14.585938 31.160156 14.949219 29.03125 15.304688 C 29.0625 15.378906 29.097656 15.449219 29.128906 15.523438 C 29.636719 15.503906 30.003906 15.496094 30.425781 15.464844 C 30.867188 15.429688 31.273438 15.390625 31.671875 15.355469 C 32.074219 15.316406 32.453125 15.277344 32.816406 15.238281 C 33.183594 15.214844 33.53125 15.1875 33.859375 15.164062 C 34.023438 15.148438 34.183594 15.148438 34.335938 15.148438 C 34.492188 15.144531 34.644531 15.144531 34.789062 15.144531 C 35.082031 15.140625 35.359375 15.140625 35.617188 15.136719 C 36.132812 15.136719 36.585938 15.132812 36.976562 15.144531 C 37.753906 15.160156 38.292969 15.179688 38.636719 15.195312 C 38.980469 15.214844 39.128906 15.234375 39.128906 15.253906 C 39.128906 15.269531 38.980469 15.289062 38.636719 15.300781 C 38.292969 15.316406 37.753906 15.328125 36.976562 15.335938 C 36.585938 15.335938 36.136719 15.355469 35.621094 15.367188 C 35.363281 15.371094 35.089844 15.378906 34.796875 15.382812 C 34.652344 15.386719 34.503906 15.390625 34.347656 15.394531 C 34.191406 15.398438 34.035156 15.398438 33.871094 15.414062 C 33.675781 15.433594 33.472656 15.449219 33.265625 15.464844 C 34.25 15.472656 35.234375 15.503906 36.210938 15.503906 Z M 43.636719 16.339844 C 43.523438 16.265625 43.398438 16.207031 43.289062 16.132812 C 43.25 16.109375 43.222656 16.082031 43.203125 16.050781 C 40.929688 16.050781 38.78125 16.050781 36.566406 16.050781 C 34.207031 16.050781 31.765625 15.875 29.421875 16.230469 C 29.441406 16.269531 29.457031 16.304688 29.476562 16.339844 C 29.484375 16.351562 29.492188 16.371094 29.5 16.382812 C 34.210938 16.390625 38.925781 16.542969 43.636719 16.339844 Z M 13.070312 16.046875 C 13.070312 16.046875 13.070312 16.050781 13.066406 16.050781 C 13.070312 16.050781 13.074219 16.046875 13.078125 16.042969 C 13.09375 16.042969 13.140625 16.050781 13.140625 16.050781 C 13.144531 16.050781 13.148438 16.050781 13.152344 16.050781 C 13.179688 16.046875 13.203125 16.046875 13.234375 16.050781 C 13.945312 16.144531 14.710938 16.089844 15.425781 16.105469 C 17 16.136719 18.570312 16.167969 20.144531 16.199219 C 22.324219 16.238281 24.507812 16.296875 26.691406 16.320312 C 26.691406 16.261719 26.691406 16.199219 26.691406 16.136719 C 24.507812 16.113281 22.324219 16.058594 20.144531 16.015625 C 18.570312 15.984375 17 15.957031 15.425781 15.921875 C 14.714844 15.910156 13.957031 15.960938 13.25 15.871094 C 13.230469 15.886719 13.207031 15.898438 13.183594 15.910156 C 13.171875 15.921875 13.164062 15.933594 13.152344 15.945312 C 13.109375 15.984375 13.09375 16.03125 13.078125 16.042969 C 13.074219 16.042969 13.074219 16.046875 13.070312 16.046875 Z M 18.898438 11.855469 C 18.476562 11.855469 18.078125 11.871094 17.675781 11.886719 C 16.8125 11.921875 15.988281 11.894531 15.347656 11.628906 L 14.851562 11.425781 L 15.335938 11.242188 C 15.890625 11.039062 16.355469 10.964844 16.683594 10.929688 C 16.691406 10.929688 16.695312 10.929688 16.703125 10.929688 C 17.136719 10.824219 17.707031 10.699219 18.449219 10.5625 C 18.980469 10.46875 19.597656 10.375 20.316406 10.320312 C 20.683594 10.300781 21.082031 10.285156 21.5 10.289062 C 21.523438 10.269531 21.550781 10.257812 21.585938 10.257812 C 22.796875 10.246094 24.011719 10.136719 25.199219 10.320312 C 25.191406 10.308594 25.179688 10.300781 25.167969 10.289062 C 25.019531 10.167969 24.867188 10.050781 24.71875 9.9375 C 24.488281 9.894531 24.25 9.855469 24.007812 9.835938 C 23.53125 9.777344 23.070312 9.726562 22.625 9.640625 C 22.175781 9.574219 21.742188 9.460938 21.332031 9.359375 C 21.121094 9.3125 20.9375 9.242188 20.753906 9.179688 C 20.570312 9.117188 20.390625 9.054688 20.21875 9 L 20.152344 8.976562 L 20.109375 8.960938 L 20.078125 8.945312 C 20.039062 8.929688 19.996094 8.914062 19.957031 8.902344 C 19.875 8.867188 19.796875 8.832031 19.714844 8.804688 C 19.554688 8.738281 19.40625 8.679688 19.253906 8.609375 C 19.109375 8.535156 18.957031 8.46875 18.835938 8.394531 C 18.777344 8.355469 18.722656 8.316406 18.667969 8.28125 C 18.640625 8.261719 18.613281 8.242188 18.585938 8.226562 L 18.546875 8.199219 L 18.527344 8.1875 L 18.523438 8.179688 L 18.511719 8.175781 C 18.507812 8.171875 18.496094 8.164062 18.496094 8.164062 C 18.296875 7.992188 18.152344 7.828125 18.039062 7.699219 C 17.984375 7.640625 17.933594 7.582031 17.890625 7.53125 C 17.84375 7.484375 17.804688 7.441406 17.773438 7.40625 C 17.757812 7.390625 17.746094 7.375 17.738281 7.363281 C 17.644531 7.320312 17.601562 7.289062 17.609375 7.273438 C 17.617188 7.238281 17.820312 7.25 18.261719 7.332031 C 18.484375 7.367188 18.769531 7.410156 19.128906 7.460938 C 19.488281 7.511719 19.921875 7.570312 20.433594 7.640625 C 20.945312 7.730469 21.546875 7.820312 22.21875 8.039062 C 22.558594 8.128906 22.902344 8.292969 23.269531 8.453125 C 23.617188 8.640625 23.984375 8.839844 24.355469 9.074219 C 24.480469 9.152344 24.605469 9.234375 24.734375 9.316406 C 24.753906 9.320312 24.773438 9.324219 24.796875 9.332031 C 25.03125 9.378906 25.261719 9.4375 25.484375 9.507812 C 25.929688 9.648438 26.347656 9.832031 26.71875 10.046875 C 27.011719 10.214844 27.277344 10.410156 27.511719 10.621094 C 27.476562 10.46875 27.4375 10.320312 27.40625 10.175781 C 27.324219 9.933594 27.246094 9.703125 27.171875 9.480469 C 27.074219 9.257812 26.984375 9.046875 26.890625 8.839844 C 26.796875 8.632812 26.683594 8.433594 26.585938 8.238281 C 26.183594 7.460938 25.789062 6.78125 25.445312 6.171875 C 25.101562 5.566406 24.804688 5.035156 24.546875 4.570312 C 23.546875 2.707031 23.320312 1.917969 23.378906 1.894531 C 23.460938 1.859375 23.808594 2.578125 24.886719 4.378906 C 25.160156 4.828125 25.476562 5.347656 25.835938 5.941406 C 26.199219 6.542969 26.609375 7.214844 27.03125 8 C 27.136719 8.199219 27.25 8.398438 27.355469 8.613281 C 27.453125 8.832031 27.558594 9.054688 27.660156 9.285156 C 27.742188 9.527344 27.832031 9.769531 27.917969 10.023438 C 27.980469 10.285156 28.054688 10.546875 28.109375 10.824219 C 28.148438 11.035156 28.175781 11.253906 28.199219 11.476562 C 28.214844 11.503906 28.226562 11.53125 28.238281 11.558594 C 28.480469 10.222656 28.699219 9.042969 28.894531 8.003906 C 29.207031 6.316406 29.457031 5 29.65625 4 C 30.058594 1.996094 30.261719 1.246094 30.335938 1.257812 C 30.410156 1.273438 30.34375 2.046875 30.039062 4.066406 C 29.886719 5.078125 29.675781 6.398438 29.390625 8.089844 C 29.265625 8.835938 29.121094 9.65625 28.964844 10.554688 C 29.582031 9.875 30.3125 9.460938 30.980469 9.175781 C 31.699219 8.871094 32.367188 8.707031 32.960938 8.585938 C 33.554688 8.464844 34.074219 8.398438 34.523438 8.351562 C 34.902344 8.308594 35.226562 8.285156 35.511719 8.265625 C 35.84375 8.242188 36.066406 8.199219 36.40625 8.226562 C 36.730469 8.253906 37.0625 8.207031 37.390625 8.179688 C 37.453125 8.179688 37.574219 8.144531 37.625 8.152344 C 38.277344 8.222656 38.941406 8.84375 39.421875 9.242188 C 39.722656 9.496094 40.007812 9.742188 40.285156 9.941406 L 40.949219 10.425781 L 40.144531 10.488281 C 40.074219 10.492188 40.003906 10.492188 39.933594 10.496094 C 39.898438 10.511719 39.859375 10.523438 39.8125 10.523438 C 37.625 10.523438 35.230469 10.449219 33.0625 11.074219 C 32.667969 11.191406 32.28125 11.320312 31.902344 11.46875 C 32.320312 11.351562 32.746094 11.257812 33.179688 11.1875 C 35.5 10.816406 37.847656 10.832031 40.160156 11.289062 C 40.226562 11.304688 40.277344 11.339844 40.308594 11.382812 C 40.351562 11.410156 40.386719 11.453125 40.410156 11.511719 C 40.625 12.070312 40.832031 12.632812 40.988281 13.214844 C 40.988281 13.222656 40.988281 13.230469 40.992188 13.242188 C 41.355469 13.789062 42.082031 14.007812 42.59375 14.386719 C 42.691406 14.460938 42.722656 14.566406 42.707031 14.667969 C 42.988281 14.945312 43.277344 15.214844 43.539062 15.515625 C 43.660156 15.546875 43.722656 15.652344 43.730469 15.761719 C 43.992188 15.921875 44.261719 16.074219 44.390625 16.367188 C 44.453125 16.503906 44.433594 16.660156 44.292969 16.742188 C 44.289062 16.746094 44.285156 16.746094 44.28125 16.75 C 44.238281 16.816406 44.164062 16.863281 44.0625 16.871094 C 39.207031 17.105469 34.34375 16.933594 29.484375 16.929688 C 29.394531 16.929688 29.328125 16.894531 29.285156 16.84375 C 29.257812 16.84375 29.230469 16.839844 29.199219 16.832031 C 28.636719 16.636719 27.824219 16.039062 27.335938 16.636719 C 27.328125 16.648438 27.320312 16.65625 27.3125 16.667969 C 27.285156 16.777344 27.203125 16.871094 27.054688 16.871094 C 24.75 16.851562 22.445312 16.789062 20.144531 16.746094 C 18.570312 16.714844 17 16.6875 15.425781 16.652344 C 14.710938 16.636719 13.945312 16.691406 13.234375 16.597656 C 13.226562 16.59375 13.214844 16.59375 13.207031 16.589844 C 13.1875 16.59375 13.167969 16.597656 13.140625 16.597656 C 12.890625 16.589844 12.578125 16.480469 12.523438 16.199219 C 12.476562 15.949219 12.582031 15.722656 12.765625 15.554688 C 12.78125 15.539062 12.796875 15.527344 12.816406 15.515625 C 12.820312 15.484375 12.828125 15.457031 12.847656 15.425781 C 13.082031 14.984375 13.332031 14.550781 13.636719 14.152344 C 13.675781 14.097656 13.726562 14.0625 13.785156 14.046875 C 13.796875 14.039062 13.8125 14.03125 13.828125 14.023438 C 14.613281 13.734375 15.316406 13.410156 15.664062 12.621094 C 16.148438 12.589844 16.710938 12.335938 17.195312 12.222656 C 17.722656 12.105469 18.359375 11.855469 18.898438 11.855469 " fill-opacity="1" fill-rule="nonzero"/></g><path fill="#ffffff" d="M 13.078125 16.042969 C 13.074219 16.046875 13.070312 16.050781 13.066406 16.050781 C 13.070312 16.050781 13.070312 16.046875 13.070312 16.046875 C 13.074219 16.046875 13.074219 16.042969 13.078125 16.042969 " fill-opacity="1" fill-rule="nonzero"/><g fill="#ffffff" fill-opacity="1"><g transform="translate(44.661715, 15.670888)"><g><path d="M 3.8125 -8.8125 C 3.5 -8.800781 3.269531 -8.769531 3.125 -8.71875 C 2.988281 -8.664062 2.894531 -8.566406 2.84375 -8.421875 C 2.789062 -8.273438 2.765625 -8.039062 2.765625 -7.71875 L 2.765625 -1.359375 C 2.765625 -1.035156 2.789062 -0.800781 2.84375 -0.65625 C 2.894531 -0.507812 2.988281 -0.410156 3.125 -0.359375 C 3.269531 -0.316406 3.5 -0.296875 3.8125 -0.296875 L 4.734375 -0.296875 C 5.265625 -0.296875 5.671875 -0.367188 5.953125 -0.515625 C 6.234375 -0.671875 6.4375 -0.914062 6.5625 -1.25 C 6.6875 -1.582031 6.78125 -2.0625 6.84375 -2.6875 L 7.140625 -2.6875 C 7.109375 -2.425781 7.09375 -2.078125 7.09375 -1.640625 C 7.09375 -1.148438 7.125 -0.601562 7.1875 0 C 6.601562 -0.0195312 5.625 -0.03125 4.25 -0.03125 C 2.613281 -0.03125 1.375 -0.0195312 0.53125 0 L 0.53125 -0.25 C 0.84375 -0.269531 1.066406 -0.304688 1.203125 -0.359375 C 1.347656 -0.410156 1.445312 -0.507812 1.5 -0.65625 C 1.550781 -0.800781 1.578125 -1.035156 1.578125 -1.359375 L 1.578125 -7.71875 C 1.578125 -8.039062 1.550781 -8.273438 1.5 -8.421875 C 1.445312 -8.566406 1.347656 -8.664062 1.203125 -8.71875 C 1.066406 -8.769531 0.84375 -8.800781 0.53125 -8.8125 L 0.53125 -9.078125 C 0.894531 -9.046875 1.441406 -9.03125 2.171875 -9.03125 C 2.859375 -9.03125 3.40625 -9.046875 3.8125 -9.078125 Z M 3.8125 -8.8125 "/></g></g></g><g fill="#ffffff" fill-opacity="1"><g transform="translate(52.85547, 15.670888)"><g><path d="M 6.84375 -1.515625 C 6.84375 -1.066406 6.875 -0.5625 6.9375 0 C 6.375 -0.0195312 5.4375 -0.03125 4.125 -0.03125 C 2.539062 -0.03125 1.34375 -0.0195312 0.53125 0 L 0.53125 -0.25 C 0.84375 -0.269531 1.066406 -0.304688 1.203125 -0.359375 C 1.347656 -0.410156 1.445312 -0.507812 1.5 -0.65625 C 1.550781 -0.800781 1.578125 -1.035156 1.578125 -1.359375 L 1.578125 -6.4375 C 1.578125 -6.757812 1.550781 -6.992188 1.5 -7.140625 C 1.445312 -7.285156 1.347656 -7.382812 1.203125 -7.4375 C 1.066406 -7.488281 0.84375 -7.519531 0.53125 -7.53125 L 0.53125 -7.796875 C 1.34375 -7.765625 2.539062 -7.75 4.125 -7.75 C 5.320312 -7.75 6.171875 -7.765625 6.671875 -7.796875 C 6.609375 -7.273438 6.578125 -6.8125 6.578125 -6.40625 C 6.578125 -6.070312 6.59375 -5.804688 6.625 -5.609375 L 6.328125 -5.609375 C 6.265625 -6.304688 6.113281 -6.796875 5.875 -7.078125 C 5.644531 -7.359375 5.265625 -7.5 4.734375 -7.5 L 3.8125 -7.5 C 3.5 -7.5 3.269531 -7.472656 3.125 -7.421875 C 2.988281 -7.378906 2.894531 -7.285156 2.84375 -7.140625 C 2.789062 -6.992188 2.765625 -6.757812 2.765625 -6.4375 L 2.765625 -4.046875 L 3.828125 -4.046875 C 4.097656 -4.046875 4.304688 -4.113281 4.453125 -4.25 C 4.597656 -4.394531 4.695312 -4.550781 4.75 -4.71875 C 4.800781 -4.882812 4.847656 -5.097656 4.890625 -5.359375 L 5.1875 -5.359375 C 5.164062 -5.066406 5.15625 -4.75 5.15625 -4.40625 L 5.15625 -3.921875 C 5.15625 -3.585938 5.179688 -3.109375 5.234375 -2.484375 L 4.9375 -2.484375 C 4.882812 -2.890625 4.785156 -3.207031 4.640625 -3.4375 C 4.492188 -3.675781 4.222656 -3.796875 3.828125 -3.796875 L 2.765625 -3.796875 L 2.765625 -1.359375 C 2.765625 -1.035156 2.789062 -0.800781 2.84375 -0.65625 C 2.894531 -0.507812 2.988281 -0.410156 3.125 -0.359375 C 3.269531 -0.316406 3.5 -0.296875 3.8125 -0.296875 L 4.734375 -0.296875 C 5.160156 -0.296875 5.5 -0.363281 5.75 -0.5 C 6 -0.632812 6.1875 -0.851562 6.3125 -1.15625 C 6.445312 -1.457031 6.535156 -1.882812 6.578125 -2.4375 L 6.875 -2.4375 C 6.851562 -2.207031 6.84375 -1.898438 6.84375 -1.515625 Z M 6.84375 -1.515625 "/></g></g></g><g fill="#ffffff" fill-opacity="1"><g transform="translate(61.138838, 15.670888)"><g><path d="M 4.515625 -7.96875 C 4.929688 -7.96875 5.285156 -7.894531 5.578125 -7.75 C 5.867188 -7.613281 6.171875 -7.410156 6.484375 -7.140625 C 6.578125 -7.054688 6.660156 -7.015625 6.734375 -7.015625 C 6.898438 -7.015625 7.007812 -7.273438 7.0625 -7.796875 L 7.359375 -7.796875 C 7.316406 -7.273438 7.296875 -6.375 7.296875 -5.09375 L 7.015625 -5.09375 C 6.921875 -5.539062 6.832031 -5.867188 6.75 -6.078125 C 6.664062 -6.296875 6.539062 -6.515625 6.375 -6.734375 C 6.132812 -7.054688 5.847656 -7.300781 5.515625 -7.46875 C 5.179688 -7.632812 4.828125 -7.71875 4.453125 -7.71875 C 3.953125 -7.71875 3.515625 -7.5625 3.140625 -7.25 C 2.773438 -6.945312 2.488281 -6.503906 2.28125 -5.921875 C 2.070312 -5.335938 1.96875 -4.65625 1.96875 -3.875 C 1.96875 -3.070312 2.082031 -2.382812 2.3125 -1.8125 C 2.539062 -1.25 2.847656 -0.816406 3.234375 -0.515625 C 3.617188 -0.222656 4.054688 -0.078125 4.546875 -0.078125 C 4.921875 -0.078125 5.28125 -0.160156 5.625 -0.328125 C 5.976562 -0.492188 6.273438 -0.734375 6.515625 -1.046875 C 6.671875 -1.273438 6.789062 -1.507812 6.875 -1.75 C 6.957031 -2 7.03125 -2.351562 7.09375 -2.8125 L 7.390625 -2.8125 C 7.390625 -1.476562 7.40625 -0.539062 7.4375 0 L 7.15625 0 C 7.125 -0.257812 7.082031 -0.453125 7.03125 -0.578125 C 6.976562 -0.703125 6.910156 -0.765625 6.828125 -0.765625 C 6.765625 -0.765625 6.679688 -0.726562 6.578125 -0.65625 C 6.253906 -0.382812 5.9375 -0.175781 5.625 -0.03125 C 5.3125 0.101562 4.9375 0.171875 4.5 0.171875 C 3.738281 0.171875 3.070312 0.0195312 2.5 -0.28125 C 1.925781 -0.59375 1.476562 -1.050781 1.15625 -1.65625 C 0.84375 -2.257812 0.6875 -2.976562 0.6875 -3.8125 C 0.6875 -4.632812 0.847656 -5.359375 1.171875 -5.984375 C 1.503906 -6.617188 1.957031 -7.109375 2.53125 -7.453125 C 3.113281 -7.796875 3.773438 -7.96875 4.515625 -7.96875 Z M 4.515625 -7.96875 "/></g></g></g><g fill="#ffffff" fill-opacity="1"><g transform="translate(70.036699, 15.670888)"><g><path d="M 7.65625 -7.796875 C 7.59375 -7.222656 7.5625 -6.71875 7.5625 -6.28125 C 7.5625 -5.832031 7.570312 -5.484375 7.59375 -5.234375 L 7.296875 -5.234375 C 7.242188 -5.828125 7.160156 -6.28125 7.046875 -6.59375 C 6.941406 -6.914062 6.765625 -7.144531 6.515625 -7.28125 C 6.273438 -7.425781 5.921875 -7.5 5.453125 -7.5 L 4.640625 -7.5 L 4.640625 -1.484375 C 4.640625 -1.128906 4.671875 -0.867188 4.734375 -0.703125 C 4.804688 -0.546875 4.925781 -0.4375 5.09375 -0.375 C 5.269531 -0.3125 5.550781 -0.269531 5.9375 -0.25 L 5.9375 0 C 5.488281 -0.0195312 4.859375 -0.03125 4.046875 -0.03125 C 3.191406 -0.03125 2.5625 -0.0195312 2.15625 0 L 2.15625 -0.25 C 2.539062 -0.269531 2.816406 -0.3125 2.984375 -0.375 C 3.148438 -0.4375 3.269531 -0.546875 3.34375 -0.703125 C 3.414062 -0.867188 3.453125 -1.128906 3.453125 -1.484375 L 3.453125 -7.5 L 2.625 -7.5 C 2.164062 -7.5 1.8125 -7.425781 1.5625 -7.28125 C 1.3125 -7.144531 1.128906 -6.914062 1.015625 -6.59375 C 0.910156 -6.28125 0.832031 -5.828125 0.78125 -5.234375 L 0.484375 -5.234375 C 0.515625 -5.503906 0.53125 -5.851562 0.53125 -6.28125 C 0.53125 -6.71875 0.5 -7.222656 0.4375 -7.796875 C 1.144531 -7.765625 2.347656 -7.75 4.046875 -7.75 C 5.734375 -7.75 6.9375 -7.765625 7.65625 -7.796875 Z M 7.65625 -7.796875 "/></g></g></g><g fill="#ffffff" fill-opacity="1"><g transform="translate(78.780931, 15.670888)"><g><path d="M 8.109375 -7.53125 C 7.804688 -7.519531 7.582031 -7.476562 7.4375 -7.40625 C 7.289062 -7.332031 7.191406 -7.210938 7.140625 -7.046875 C 7.097656 -6.878906 7.078125 -6.628906 7.078125 -6.296875 L 7.078125 -3.46875 C 7.078125 -2.882812 7.035156 -2.382812 6.953125 -1.96875 C 6.867188 -1.550781 6.734375 -1.191406 6.546875 -0.890625 C 6.335938 -0.554688 6.039062 -0.296875 5.65625 -0.109375 C 5.269531 0.078125 4.828125 0.171875 4.328125 0.171875 C 3.453125 0.171875 2.78125 -0.015625 2.3125 -0.390625 C 1.9375 -0.722656 1.679688 -1.101562 1.546875 -1.53125 C 1.421875 -1.957031 1.359375 -2.59375 1.359375 -3.4375 L 1.359375 -6.4375 C 1.359375 -6.757812 1.332031 -6.992188 1.28125 -7.140625 C 1.226562 -7.285156 1.128906 -7.382812 0.984375 -7.4375 C 0.847656 -7.488281 0.628906 -7.519531 0.328125 -7.53125 L 0.328125 -7.796875 C 0.679688 -7.765625 1.222656 -7.75 1.953125 -7.75 C 2.640625 -7.75 3.1875 -7.765625 3.59375 -7.796875 L 3.59375 -7.53125 C 3.28125 -7.519531 3.050781 -7.488281 2.90625 -7.4375 C 2.769531 -7.382812 2.675781 -7.285156 2.625 -7.140625 C 2.570312 -6.992188 2.546875 -6.757812 2.546875 -6.4375 L 2.546875 -3.21875 C 2.546875 -2.582031 2.585938 -2.054688 2.671875 -1.640625 C 2.765625 -1.234375 2.945312 -0.898438 3.21875 -0.640625 C 3.5 -0.390625 3.910156 -0.265625 4.453125 -0.265625 C 5.304688 -0.265625 5.90625 -0.535156 6.25 -1.078125 C 6.601562 -1.617188 6.78125 -2.367188 6.78125 -3.328125 L 6.78125 -6.296875 C 6.78125 -6.765625 6.695312 -7.082031 6.53125 -7.25 C 6.363281 -7.425781 6.054688 -7.519531 5.609375 -7.53125 L 5.609375 -7.796875 C 5.921875 -7.765625 6.359375 -7.75 6.921875 -7.75 C 7.429688 -7.75 7.828125 -7.765625 8.109375 -7.796875 Z M 8.109375 -7.53125 "/></g></g></g><g fill="#ffffff" fill-opacity="1"><g transform="translate(87.870813, 15.670888)"><g><path d="M 8.09375 -0.53125 C 7.9375 -0.300781 7.75 -0.125 7.53125 0 C 7.320312 0.113281 7.078125 0.171875 6.796875 0.171875 C 6.078125 0.171875 5.632812 -0.148438 5.46875 -0.796875 L 5.078125 -2.390625 C 4.953125 -2.867188 4.769531 -3.1875 4.53125 -3.34375 C 4.300781 -3.507812 3.957031 -3.59375 3.5 -3.59375 L 2.765625 -3.59375 L 2.765625 -1.359375 C 2.765625 -1.035156 2.789062 -0.800781 2.84375 -0.65625 C 2.894531 -0.507812 2.988281 -0.410156 3.125 -0.359375 C 3.269531 -0.304688 3.5 -0.269531 3.8125 -0.25 L 3.8125 0 C 3.414062 -0.0195312 2.867188 -0.03125 2.171875 -0.03125 C 1.441406 -0.03125 0.894531 -0.0195312 0.53125 0 L 0.53125 -0.25 C 0.84375 -0.269531 1.066406 -0.304688 1.203125 -0.359375 C 1.347656 -0.410156 1.445312 -0.507812 1.5 -0.65625 C 1.550781 -0.800781 1.578125 -1.035156 1.578125 -1.359375 L 1.578125 -6.4375 C 1.578125 -6.757812 1.550781 -6.992188 1.5 -7.140625 C 1.445312 -7.285156 1.347656 -7.382812 1.203125 -7.4375 C 1.066406 -7.488281 0.84375 -7.519531 0.53125 -7.53125 L 0.53125 -7.796875 C 0.894531 -7.765625 1.414062 -7.75 2.09375 -7.75 L 3.40625 -7.765625 C 3.550781 -7.773438 3.71875 -7.78125 3.90625 -7.78125 C 4.863281 -7.78125 5.597656 -7.597656 6.109375 -7.234375 C 6.617188 -6.878906 6.875 -6.414062 6.875 -5.84375 C 6.875 -5.34375 6.671875 -4.890625 6.265625 -4.484375 C 5.867188 -4.078125 5.21875 -3.816406 4.3125 -3.703125 C 4.488281 -3.679688 4.632812 -3.664062 4.75 -3.65625 C 5.207031 -3.582031 5.566406 -3.441406 5.828125 -3.234375 C 6.097656 -3.035156 6.285156 -2.707031 6.390625 -2.25 L 6.671875 -1.09375 C 6.742188 -0.789062 6.816406 -0.578125 6.890625 -0.453125 C 6.972656 -0.328125 7.082031 -0.265625 7.21875 -0.265625 C 7.425781 -0.265625 7.660156 -0.410156 7.921875 -0.703125 Z M 3.59375 -7.53125 C 3.351562 -7.53125 3.175781 -7.5 3.0625 -7.4375 C 2.945312 -7.382812 2.867188 -7.28125 2.828125 -7.125 C 2.785156 -6.96875 2.765625 -6.738281 2.765625 -6.4375 L 2.765625 -3.859375 L 3.625 -3.859375 C 4.375 -3.859375 4.890625 -4.015625 5.171875 -4.328125 C 5.453125 -4.648438 5.59375 -5.109375 5.59375 -5.703125 C 5.59375 -6.316406 5.4375 -6.773438 5.125 -7.078125 C 4.8125 -7.378906 4.300781 -7.53125 3.59375 -7.53125 Z M 3.59375 -7.53125 "/></g></g></g><g fill="#ffffff" fill-opacity="1"><g transform="translate(96.525432, 15.670888)"><g><path d="M 7.046875 -1.078125 C 7.273438 -0.546875 7.570312 -0.269531 7.9375 -0.25 L 7.9375 0 C 7.59375 -0.0195312 7.132812 -0.03125 6.5625 -0.03125 C 5.820312 -0.03125 5.273438 -0.0195312 4.921875 0 L 4.921875 -0.25 C 5.234375 -0.269531 5.460938 -0.3125 5.609375 -0.375 C 5.765625 -0.445312 5.84375 -0.566406 5.84375 -0.734375 C 5.84375 -0.867188 5.78125 -1.066406 5.65625 -1.328125 L 5.015625 -2.796875 L 1.890625 -2.796875 L 1.453125 -1.828125 C 1.316406 -1.492188 1.25 -1.222656 1.25 -1.015625 C 1.25 -0.785156 1.328125 -0.609375 1.484375 -0.484375 C 1.640625 -0.367188 1.894531 -0.289062 2.25 -0.25 L 2.25 0 C 1.988281 -0.0195312 1.597656 -0.03125 1.078125 -0.03125 C 0.554688 -0.03125 0.1875 -0.0195312 -0.03125 0 L -0.03125 -0.25 C 0.195312 -0.3125 0.390625 -0.441406 0.546875 -0.640625 C 0.710938 -0.847656 0.867188 -1.117188 1.015625 -1.453125 L 3.84375 -7.859375 L 4.046875 -7.859375 Z M 4.90625 -3.046875 L 3.453125 -6.296875 L 2 -3.046875 Z M 4.90625 -3.046875 "/></g></g></g><path stroke-linecap="butt" transform="matrix(0.740132, 0, 0, 0.740132, 4.444423, 34.93752)" fill="none" stroke-linejoin="miter" d="M 0.00120141 0.501361 L 145.952874 0.501361 " stroke="#ffffff" stroke-width="1" stroke-opacity="1" stroke-miterlimit="4"/><g fill="#ffffff" fill-opacity="1"><g transform="translate(11.280845, 31.428328)"><g><path d="M 5.296875 -12.28125 C 4.867188 -12.257812 4.554688 -12.210938 4.359375 -12.140625 C 4.171875 -12.066406 4.039062 -11.929688 3.96875 -11.734375 C 3.894531 -11.535156 3.859375 -11.207031 3.859375 -10.75 L 3.859375 -1.890625 C 3.859375 -1.441406 3.894531 -1.113281 3.96875 -0.90625 C 4.039062 -0.707031 4.171875 -0.570312 4.359375 -0.5 C 4.554688 -0.425781 4.867188 -0.378906 5.296875 -0.359375 L 5.296875 0 C 4.753906 -0.03125 4 -0.046875 3.03125 -0.046875 C 2.007812 -0.046875 1.25 -0.03125 0.75 0 L 0.75 -0.359375 C 1.175781 -0.378906 1.488281 -0.425781 1.6875 -0.5 C 1.882812 -0.570312 2.019531 -0.707031 2.09375 -0.90625 C 2.164062 -1.113281 2.203125 -1.441406 2.203125 -1.890625 L 2.203125 -10.75 C 2.203125 -11.207031 2.164062 -11.535156 2.09375 -11.734375 C 2.019531 -11.929688 1.882812 -12.066406 1.6875 -12.140625 C 1.488281 -12.210938 1.175781 -12.257812 0.75 -12.28125 L 0.75 -12.640625 C 1.25 -12.609375 2.007812 -12.59375 3.03125 -12.59375 C 3.988281 -12.59375 4.742188 -12.609375 5.296875 -12.640625 Z M 5.296875 -12.28125 "/></g></g></g><g fill="#ffffff" fill-opacity="1"><g transform="translate(18.262644, 31.428328)"><g><path d="M 11.609375 -10.5 C 11.191406 -10.476562 10.878906 -10.414062 10.671875 -10.3125 C 10.472656 -10.207031 10.335938 -10.039062 10.265625 -9.8125 C 10.191406 -9.582031 10.15625 -9.238281 10.15625 -8.78125 L 10.15625 0.09375 L 9.75 0.09375 L 2.609375 -9.8125 L 2.609375 -2.078125 C 2.609375 -1.609375 2.644531 -1.257812 2.71875 -1.03125 C 2.800781 -0.8125 2.953125 -0.648438 3.171875 -0.546875 C 3.398438 -0.441406 3.753906 -0.378906 4.234375 -0.359375 L 4.234375 0 C 3.804688 -0.03125 3.195312 -0.046875 2.40625 -0.046875 C 1.695312 -0.046875 1.144531 -0.03125 0.75 0 L 0.75 -0.359375 C 1.164062 -0.378906 1.472656 -0.441406 1.671875 -0.546875 C 1.878906 -0.648438 2.019531 -0.816406 2.09375 -1.046875 C 2.164062 -1.273438 2.203125 -1.617188 2.203125 -2.078125 L 2.203125 -8.96875 C 2.203125 -9.414062 2.164062 -9.738281 2.09375 -9.9375 C 2.019531 -10.144531 1.882812 -10.285156 1.6875 -10.359375 C 1.488281 -10.429688 1.175781 -10.476562 0.75 -10.5 L 0.75 -10.859375 C 1.144531 -10.828125 1.695312 -10.8125 2.40625 -10.8125 C 3.050781 -10.8125 3.597656 -10.828125 4.046875 -10.859375 L 9.75 -2.921875 L 9.75 -8.78125 C 9.75 -9.25 9.707031 -9.59375 9.625 -9.8125 C 9.550781 -10.039062 9.398438 -10.207031 9.171875 -10.3125 C 8.953125 -10.414062 8.601562 -10.476562 8.125 -10.5 L 8.125 -10.859375 C 8.550781 -10.828125 9.160156 -10.8125 9.953125 -10.8125 C 10.660156 -10.8125 11.210938 -10.828125 11.609375 -10.859375 Z M 11.609375 -10.5 "/></g></g></g><g fill="#ffffff" fill-opacity="1"><g transform="translate(31.422535, 31.428328)"><g><path d="M 4.578125 -11.109375 C 5.097656 -11.109375 5.507812 -11.050781 5.8125 -10.9375 C 6.113281 -10.820312 6.425781 -10.660156 6.75 -10.453125 C 7.007812 -10.285156 7.210938 -10.203125 7.359375 -10.203125 C 7.460938 -10.203125 7.546875 -10.265625 7.609375 -10.390625 C 7.671875 -10.515625 7.71875 -10.710938 7.75 -10.984375 L 8.15625 -10.984375 C 8.101562 -10.367188 8.078125 -9.273438 8.078125 -7.703125 L 7.65625 -7.703125 C 7.582031 -8.554688 7.304688 -9.28125 6.828125 -9.875 C 6.347656 -10.46875 5.648438 -10.765625 4.734375 -10.765625 C 4.097656 -10.765625 3.570312 -10.597656 3.15625 -10.265625 C 2.75 -9.929688 2.546875 -9.507812 2.546875 -9 C 2.546875 -8.632812 2.640625 -8.3125 2.828125 -8.03125 C 3.015625 -7.757812 3.253906 -7.523438 3.546875 -7.328125 C 3.835938 -7.128906 4.25 -6.890625 4.78125 -6.609375 L 5.375 -6.28125 C 6.113281 -5.894531 6.707031 -5.546875 7.15625 -5.234375 C 7.601562 -4.921875 7.960938 -4.566406 8.234375 -4.171875 C 8.503906 -3.773438 8.640625 -3.3125 8.640625 -2.78125 C 8.640625 -1.820312 8.289062 -1.078125 7.59375 -0.546875 C 6.894531 -0.015625 6.023438 0.25 4.984375 0.25 C 4.410156 0.25 3.941406 0.1875 3.578125 0.0625 C 3.210938 -0.0507812 2.863281 -0.207031 2.53125 -0.40625 C 2.269531 -0.570312 2.066406 -0.65625 1.921875 -0.65625 C 1.816406 -0.65625 1.734375 -0.59375 1.671875 -0.46875 C 1.617188 -0.34375 1.570312 -0.144531 1.53125 0.125 L 1.125 0.125 C 1.175781 -0.457031 1.203125 -1.765625 1.203125 -3.796875 L 1.609375 -3.796875 C 1.691406 -2.691406 1.988281 -1.800781 2.5 -1.125 C 3.007812 -0.445312 3.796875 -0.109375 4.859375 -0.109375 C 5.453125 -0.109375 5.960938 -0.273438 6.390625 -0.609375 C 6.828125 -0.953125 7.046875 -1.457031 7.046875 -2.125 C 7.046875 -2.519531 6.929688 -2.867188 6.703125 -3.171875 C 6.484375 -3.472656 6.179688 -3.742188 5.796875 -3.984375 C 5.421875 -4.222656 4.894531 -4.519531 4.21875 -4.875 C 3.238281 -5.375 2.492188 -5.875 1.984375 -6.375 C 1.472656 -6.875 1.21875 -7.523438 1.21875 -8.328125 C 1.21875 -9.203125 1.539062 -9.882812 2.1875 -10.375 C 2.832031 -10.863281 3.628906 -11.109375 4.578125 -11.109375 Z M 4.578125 -11.109375 "/></g></g></g><g fill="#ffffff" fill-opacity="1"><g transform="translate(41.904057, 31.428328)"><g><path d="M 3.859375 -4.390625 L 3.859375 -1.890625 C 3.859375 -1.441406 3.894531 -1.113281 3.96875 -0.90625 C 4.039062 -0.707031 4.171875 -0.570312 4.359375 -0.5 C 4.554688 -0.425781 4.867188 -0.378906 5.296875 -0.359375 L 5.296875 0 C 4.753906 -0.03125 4 -0.046875 3.03125 -0.046875 C 2.007812 -0.046875 1.25 -0.03125 0.75 0 L 0.75 -0.359375 C 1.175781 -0.378906 1.488281 -0.425781 1.6875 -0.5 C 1.882812 -0.570312 2.019531 -0.707031 2.09375 -0.90625 C 2.164062 -1.113281 2.203125 -1.441406 2.203125 -1.890625 L 2.203125 -8.96875 C 2.203125 -9.414062 2.164062 -9.738281 2.09375 -9.9375 C 2.019531 -10.144531 1.882812 -10.285156 1.6875 -10.359375 C 1.488281 -10.429688 1.175781 -10.476562 0.75 -10.5 L 0.75 -10.859375 C 1.25 -10.828125 1.972656 -10.8125 2.921875 -10.8125 L 4.859375 -10.828125 C 5.085938 -10.835938 5.34375 -10.84375 5.625 -10.84375 C 6.894531 -10.84375 7.867188 -10.570312 8.546875 -10.03125 C 9.234375 -9.488281 9.578125 -8.765625 9.578125 -7.859375 C 9.578125 -7.285156 9.4375 -6.734375 9.15625 -6.203125 C 8.875 -5.679688 8.394531 -5.25 7.71875 -4.90625 C 7.050781 -4.5625 6.160156 -4.390625 5.046875 -4.390625 Z M 5.171875 -10.5 C 4.804688 -10.5 4.53125 -10.457031 4.34375 -10.375 C 4.164062 -10.289062 4.039062 -10.140625 3.96875 -9.921875 C 3.894531 -9.710938 3.859375 -9.394531 3.859375 -8.96875 L 3.859375 -4.75 L 4.875 -4.75 C 5.96875 -4.75 6.722656 -5.007812 7.140625 -5.53125 C 7.566406 -6.0625 7.78125 -6.769531 7.78125 -7.65625 C 7.78125 -8.625 7.578125 -9.335938 7.171875 -9.796875 C 6.773438 -10.265625 6.109375 -10.5 5.171875 -10.5 Z M 5.171875 -10.5 "/></g></g></g><g fill="#ffffff" fill-opacity="1"><g transform="translate(52.939108, 31.428328)"><g><path d="M 5.296875 -10.5 C 4.867188 -10.476562 4.554688 -10.429688 4.359375 -10.359375 C 4.171875 -10.285156 4.039062 -10.144531 3.96875 -9.9375 C 3.894531 -9.738281 3.859375 -9.414062 3.859375 -8.96875 L 3.859375 -1.890625 C 3.859375 -1.441406 3.894531 -1.113281 3.96875 -0.90625 C 4.039062 -0.707031 4.171875 -0.570312 4.359375 -0.5 C 4.554688 -0.425781 4.867188 -0.378906 5.296875 -0.359375 L 5.296875 0 C 4.753906 -0.03125 4 -0.046875 3.03125 -0.046875 C 2.007812 -0.046875 1.25 -0.03125 0.75 0 L 0.75 -0.359375 C 1.175781 -0.378906 1.488281 -0.425781 1.6875 -0.5 C 1.882812 -0.570312 2.019531 -0.707031 2.09375 -0.90625 C 2.164062 -1.113281 2.203125 -1.441406 2.203125 -1.890625 L 2.203125 -8.96875 C 2.203125 -9.414062 2.164062 -9.738281 2.09375 -9.9375 C 2.019531 -10.144531 1.882812 -10.285156 1.6875 -10.359375 C 1.488281 -10.429688 1.175781 -10.476562 0.75 -10.5 L 0.75 -10.859375 C 1.25 -10.828125 2.007812 -10.8125 3.03125 -10.8125 C 3.988281 -10.8125 4.742188 -10.828125 5.296875 -10.859375 Z M 5.296875 -10.5 "/></g></g></g><g fill="#ffffff" fill-opacity="1"><g transform="translate(59.920909, 31.428328)"><g><path d="M 11.28125 -0.75 C 11.0625 -0.425781 10.804688 -0.175781 10.515625 0 C 10.222656 0.164062 9.875 0.25 9.46875 0.25 C 8.46875 0.25 7.851562 -0.203125 7.625 -1.109375 L 7.078125 -3.34375 C 6.910156 -4.007812 6.660156 -4.453125 6.328125 -4.671875 C 6.003906 -4.898438 5.519531 -5.015625 4.875 -5.015625 L 3.859375 -5.015625 L 3.859375 -1.890625 C 3.859375 -1.441406 3.894531 -1.113281 3.96875 -0.90625 C 4.039062 -0.707031 4.171875 -0.570312 4.359375 -0.5 C 4.554688 -0.425781 4.867188 -0.378906 5.296875 -0.359375 L 5.296875 0 C 4.753906 -0.03125 4 -0.046875 3.03125 -0.046875 C 2.007812 -0.046875 1.25 -0.03125 0.75 0 L 0.75 -0.359375 C 1.175781 -0.378906 1.488281 -0.425781 1.6875 -0.5 C 1.882812 -0.570312 2.019531 -0.707031 2.09375 -0.90625 C 2.164062 -1.113281 2.203125 -1.441406 2.203125 -1.890625 L 2.203125 -8.96875 C 2.203125 -9.414062 2.164062 -9.738281 2.09375 -9.9375 C 2.019531 -10.144531 1.882812 -10.285156 1.6875 -10.359375 C 1.488281 -10.429688 1.175781 -10.476562 0.75 -10.5 L 0.75 -10.859375 C 1.25 -10.828125 1.972656 -10.8125 2.921875 -10.8125 L 4.75 -10.828125 C 4.945312 -10.835938 5.179688 -10.84375 5.453125 -10.84375 C 6.785156 -10.84375 7.804688 -10.59375 8.515625 -10.09375 C 9.222656 -9.59375 9.578125 -8.941406 9.578125 -8.140625 C 9.578125 -7.453125 9.296875 -6.820312 8.734375 -6.25 C 8.179688 -5.675781 7.273438 -5.3125 6.015625 -5.15625 C 6.253906 -5.132812 6.457031 -5.113281 6.625 -5.09375 C 7.257812 -5 7.757812 -4.804688 8.125 -4.515625 C 8.5 -4.234375 8.757812 -3.773438 8.90625 -3.140625 L 9.3125 -1.515625 C 9.40625 -1.097656 9.503906 -0.800781 9.609375 -0.625 C 9.722656 -0.457031 9.875 -0.375 10.0625 -0.375 C 10.351562 -0.375 10.675781 -0.578125 11.03125 -0.984375 Z M 5 -10.5 C 4.675781 -10.5 4.429688 -10.457031 4.265625 -10.375 C 4.109375 -10.289062 4 -10.140625 3.9375 -9.921875 C 3.882812 -9.710938 3.859375 -9.394531 3.859375 -8.96875 L 3.859375 -5.375 L 5.046875 -5.375 C 6.097656 -5.375 6.816406 -5.597656 7.203125 -6.046875 C 7.585938 -6.492188 7.78125 -7.128906 7.78125 -7.953125 C 7.78125 -8.804688 7.5625 -9.441406 7.125 -9.859375 C 6.695312 -10.285156 5.988281 -10.5 5 -10.5 Z M 5 -10.5 "/></g></g></g><g fill="#ffffff" fill-opacity="1"><g transform="translate(71.9916, 31.428328)"><g><path d="M 9.828125 -1.5 C 10.148438 -0.757812 10.5625 -0.378906 11.0625 -0.359375 L 11.0625 0 C 10.582031 -0.03125 9.941406 -0.046875 9.140625 -0.046875 C 8.117188 -0.046875 7.359375 -0.03125 6.859375 0 L 6.859375 -0.359375 C 7.296875 -0.378906 7.617188 -0.4375 7.828125 -0.53125 C 8.035156 -0.625 8.140625 -0.785156 8.140625 -1.015625 C 8.140625 -1.203125 8.054688 -1.484375 7.890625 -1.859375 L 6.984375 -3.890625 L 2.640625 -3.890625 L 2.03125 -2.546875 C 1.832031 -2.085938 1.734375 -1.707031 1.734375 -1.40625 C 1.734375 -1.101562 1.84375 -0.863281 2.0625 -0.6875 C 2.28125 -0.507812 2.632812 -0.398438 3.125 -0.359375 L 3.125 0 C 2.769531 -0.03125 2.226562 -0.046875 1.5 -0.046875 C 0.769531 -0.046875 0.253906 -0.03125 -0.046875 0 L -0.046875 -0.359375 C 0.265625 -0.441406 0.535156 -0.625 0.765625 -0.90625 C 0.992188 -1.1875 1.207031 -1.554688 1.40625 -2.015625 L 5.359375 -10.953125 L 5.640625 -10.953125 Z M 6.84375 -4.25 L 4.828125 -8.78125 L 2.78125 -4.25 Z M 6.84375 -4.25 "/></g></g></g><g fill="#ffffff" fill-opacity="1"><g transform="translate(83.919445, 31.428328)"><g><path d="M 5.625 -10.859375 C 7.476562 -10.859375 8.875 -10.40625 9.8125 -9.5 C 10.75 -8.601562 11.21875 -7.296875 11.21875 -5.578125 C 11.21875 -4.453125 10.988281 -3.46875 10.53125 -2.625 C 10.082031 -1.789062 9.425781 -1.144531 8.5625 -0.6875 C 7.695312 -0.226562 6.664062 0 5.46875 0 L 4.421875 -0.015625 C 3.753906 -0.0351562 3.269531 -0.046875 2.96875 -0.046875 C 1.988281 -0.046875 1.25 -0.03125 0.75 0 L 0.75 -0.359375 C 1.175781 -0.378906 1.488281 -0.425781 1.6875 -0.5 C 1.882812 -0.570312 2.019531 -0.707031 2.09375 -0.90625 C 2.164062 -1.113281 2.203125 -1.441406 2.203125 -1.890625 L 2.203125 -8.96875 C 2.203125 -9.414062 2.164062 -9.738281 2.09375 -9.9375 C 2.019531 -10.144531 1.882812 -10.285156 1.6875 -10.359375 C 1.488281 -10.429688 1.175781 -10.476562 0.75 -10.5 L 0.75 -10.859375 C 1.164062 -10.828125 1.742188 -10.8125 2.484375 -10.8125 L 4 -10.828125 C 4.8125 -10.847656 5.351562 -10.859375 5.625 -10.859375 Z M 5.171875 -10.53125 C 4.804688 -10.53125 4.53125 -10.488281 4.34375 -10.40625 C 4.164062 -10.320312 4.039062 -10.171875 3.96875 -9.953125 C 3.894531 -9.742188 3.859375 -9.425781 3.859375 -9 L 3.859375 -1.859375 C 3.859375 -1.429688 3.894531 -1.109375 3.96875 -0.890625 C 4.039062 -0.679688 4.164062 -0.535156 4.34375 -0.453125 C 4.53125 -0.367188 4.816406 -0.328125 5.203125 -0.328125 C 6.285156 -0.328125 7.132812 -0.519531 7.75 -0.90625 C 8.375 -1.289062 8.8125 -1.859375 9.0625 -2.609375 C 9.3125 -3.359375 9.4375 -4.320312 9.4375 -5.5 C 9.4375 -7.238281 9.113281 -8.507812 8.46875 -9.3125 C 7.820312 -10.125 6.722656 -10.53125 5.171875 -10.53125 Z M 5.171875 -10.53125 "/></g></g></g><g fill="#ffffff" fill-opacity="1"><g transform="translate(97.043623, 31.428328)"><g><path d="M 9.828125 -1.5 C 10.148438 -0.757812 10.5625 -0.378906 11.0625 -0.359375 L 11.0625 0 C 10.582031 -0.03125 9.941406 -0.046875 9.140625 -0.046875 C 8.117188 -0.046875 7.359375 -0.03125 6.859375 0 L 6.859375 -0.359375 C 7.296875 -0.378906 7.617188 -0.4375 7.828125 -0.53125 C 8.035156 -0.625 8.140625 -0.785156 8.140625 -1.015625 C 8.140625 -1.203125 8.054688 -1.484375 7.890625 -1.859375 L 6.984375 -3.890625 L 2.640625 -3.890625 L 2.03125 -2.546875 C 1.832031 -2.085938 1.734375 -1.707031 1.734375 -1.40625 C 1.734375 -1.101562 1.84375 -0.863281 2.0625 -0.6875 C 2.28125 -0.507812 2.632812 -0.398438 3.125 -0.359375 L 3.125 0 C 2.769531 -0.03125 2.226562 -0.046875 1.5 -0.046875 C 0.769531 -0.046875 0.253906 -0.03125 -0.046875 0 L -0.046875 -0.359375 C 0.265625 -0.441406 0.535156 -0.625 0.765625 -0.90625 C 0.992188 -1.1875 1.207031 -1.554688 1.40625 -2.015625 L 5.359375 -10.953125 L 5.640625 -10.953125 Z M 6.84375 -4.25 L 4.828125 -8.78125 L 2.78125 -4.25 Z M 6.84375 -4.25 "/></g></g></g></svg>